<?xml version="1.0" standalone="no"?>
<!DOCTYPE svg PUBLIC "-//W3C//DTD SVG 20010904//EN"
 "http://www.w3.org/TR/2001/REC-SVG-20010904/DTD/svg10.dtd">
<svg version="1.0" xmlns="http://www.w3.org/2000/svg"
 width="432.000000pt" height="432.000000pt" viewBox="0 0 432.000000 432.000000"
 preserveAspectRatio="xMidYMid meet">

<g transform="translate(0.000000,432.000000) scale(0.100000,-0.100000)"
fill="#000000" stroke="none">
<path d="M2230 4300 c-12 -8 -12 -10 5 -10 11 0 33 -7 49 -15 15 -8 41 -15 57
-15 15 0 31 -4 34 -10 3 -5 24 -10 46 -10 21 0 39 -4 39 -9 0 -5 21 -11 48
-14 121 -13 186 -35 217 -74 6 -6 17 -13 25 -15 19 -4 40 -24 40 -37 0 -17
-37 -13 -44 4 -4 11 -22 15 -73 15 -42 1 -75 6 -87 15 -13 10 -37 12 -90 9
-80 -6 -113 -18 -122 -46 -3 -10 -10 -18 -15 -18 -6 0 -17 -7 -25 -15 -17 -17
-80 -20 -89 -5 -8 13 -78 13 -91 0 -7 -7 -18 -4 -34 10 -13 11 -27 20 -32 20
-4 0 -8 7 -8 15 0 13 -7 15 -37 9 -21 -4 -42 -10 -48 -14 -16 -12 -75 -18 -75
-8 0 5 -15 9 -32 8 -18 -1 -35 -1 -38 0 -17 8 -69 11 -170 11 -108 -1 -113 0
-86 14 15 8 34 15 40 15 7 0 33 10 58 23 25 13 65 29 89 36 24 7 54 17 67 22
13 5 35 9 50 9 21 0 24 2 12 10 -11 7 -5 10 24 10 l39 0 -24 21 c-22 19 -31
20 -119 14 -52 -4 -100 -11 -105 -15 -6 -5 -38 -12 -73 -16 -34 -3 -62 -10
-62 -14 0 -9 -70 -30 -99 -30 -11 0 -21 -4 -21 -10 0 -5 -8 -10 -19 -10 -10 0
-24 -6 -30 -14 -7 -8 -34 -17 -61 -21 -28 -4 -53 -11 -56 -16 -3 -5 -10 -7
-15 -4 -5 4 -9 2 -9 -4 0 -5 -8 -12 -17 -15 -10 -2 0 -2 22 1 37 6 38 5 23
-10 -9 -10 -23 -17 -32 -17 -8 0 -18 -5 -21 -11 -4 -5 -19 -8 -34 -4 -16 3
-34 0 -46 -9 -11 -9 -26 -16 -33 -16 -8 0 -27 -14 -42 -30 -16 -17 -31 -31
-34 -30 -24 2 -37 -2 -51 -16 -8 -9 -22 -13 -30 -10 -9 3 -12 0 -9 -9 6 -14
-40 -65 -58 -65 -5 0 -6 -4 -3 -10 3 -5 -1 -10 -10 -10 -9 0 -26 -11 -39 -25
-13 -14 -28 -25 -35 -25 -6 0 -11 -4 -11 -10 0 -5 -4 -10 -10 -10 -5 0 -32
-22 -59 -49 -44 -44 -48 -51 -31 -56 21 -7 28 -25 10 -25 -5 0 -10 -7 -10 -15
0 -8 -4 -15 -10 -15 -5 0 -10 -7 -10 -15 0 -8 -9 -20 -20 -27 -11 -7 -20 -18
-20 -23 0 -17 -70 -86 -80 -80 -6 3 -10 18 -10 33 l-1 27 -25 -30 c-42 -51
-44 -54 -65 -90 -12 -19 -24 -35 -28 -35 -4 0 -20 -25 -36 -55 -15 -30 -31
-55 -35 -55 -3 0 -14 -20 -24 -45 -11 -25 -23 -45 -28 -45 -4 0 -8 -7 -8 -15
0 -17 -40 -107 -51 -115 -4 -3 -10 -22 -14 -43 -4 -20 -11 -40 -16 -43 -5 -3
-9 -21 -9 -40 0 -19 -4 -33 -9 -30 -5 3 -11 -9 -14 -27 -8 -45 -32 -139 -41
-159 -4 -9 -6 -29 -3 -45 4 -27 4 -27 6 5 0 17 5 32 9 32 4 0 14 27 21 60 7
32 18 58 24 57 5 -1 13 11 18 27 5 17 20 40 34 52 14 12 25 29 25 38 0 9 5 16
10 16 6 0 10 -30 10 -70 0 -38 -4 -70 -8 -70 -5 0 -17 -35 -27 -77 -26 -115
-45 -203 -54 -248 -5 -22 -10 -33 -11 -25 -4 22 -21 -95 -23 -160 -1 -30 -8
-61 -14 -68 -7 -7 -14 -30 -14 -50 -1 -20 -3 -29 -6 -19 -2 9 -8 17 -13 17
-19 0 -33 156 -19 210 6 21 6 58 1 95 -8 47 -10 52 -11 23 0 -20 -5 -38 -11
-40 -5 -2 -10 -77 -11 -178 -1 -181 -4 -210 -20 -210 -12 0 -10 317 3 395 5
33 12 88 15 123 2 34 9 60 14 56 5 -3 9 5 9 18 0 26 32 160 40 168 8 8 30 75
30 93 0 9 5 17 10 17 6 0 10 12 10 28 0 21 2 24 10 12 8 -12 10 -9 10 12 0 15
4 29 9 32 5 3 12 22 15 41 4 19 11 35 16 35 5 0 14 16 20 35 6 19 16 35 21 35
5 0 9 9 9 20 0 11 3 20 8 20 4 0 13 15 21 33 8 17 25 45 38 60 12 16 23 35 23
43 0 8 4 14 9 14 5 0 14 14 21 30 7 17 16 30 21 30 4 0 10 8 13 18 3 9 19 33
36 52 17 19 33 43 36 53 3 9 11 17 19 17 8 0 17 9 20 20 3 11 11 20 16 20 5 0
9 4 9 9 0 12 59 71 71 71 5 0 9 4 9 8 0 5 9 19 20 32 11 13 20 20 20 17 0 -3
25 19 56 49 31 30 60 54 65 54 5 0 9 5 9 11 0 15 -69 -41 -184 -151 -370 -353
-585 -782 -656 -1309 -14 -107 -15 -393 0 -502 54 -417 207 -781 460 -1099 85
-106 269 -286 375 -366 416 -315 949 -475 1453 -436 787 61 1451 508 1792
1207 82 168 171 421 127 360 -8 -10 -19 -15 -25 -11 -7 4 -17 -3 -24 -18 -6
-14 -15 -26 -20 -26 -4 0 -8 -11 -8 -25 0 -14 -4 -25 -9 -25 -5 0 -12 -10 -14
-22 -4 -22 -4 -21 -6 2 0 14 6 47 14 74 8 27 15 71 15 98 0 30 4 47 10 43 6
-4 10 8 10 29 0 46 -17 47 -26 1 -3 -19 -10 -38 -15 -41 -5 -3 -9 -14 -9 -25
0 -25 -17 -25 -25 1 -7 21 2 78 15 95 4 6 10 30 13 55 5 39 37 122 37 97 0
-11 25 14 33 33 4 8 4 -7 1 -35 -9 -83 -12 -121 -7 -100 7 31 22 43 43 38 11
-3 20 -9 20 -13 0 -4 8 -10 19 -13 17 -4 20 6 32 92 20 136 17 447 -5 591 -47
315 -153 596 -322 862 -47 73 -167 232 -183 242 -4 3 -4 -20 2 -50 5 -30 6
-58 3 -62 -4 -3 -21 11 -39 31 -18 20 -37 37 -43 37 -9 0 -77 72 -104 109 -3
4 -21 18 -40 31 -52 36 -120 111 -120 133 0 4 11 -2 24 -15 13 -13 36 -32 51
-43 16 -11 34 -26 41 -33 8 -7 24 -15 36 -17 12 -3 25 -10 29 -17 4 -6 7 4 6
23 -2 24 -11 41 -32 59 -16 14 -33 24 -38 22 -5 -1 -6 2 -3 7 4 5 -35 41 -86
79 -325 243 -633 371 -1034 427 -123 17 -193 19 -214 5z m-1194 -365 c-3 -8
-16 -15 -28 -15 l-23 0 25 24 c25 23 37 19 26 -9z m664 13 c0 -19 -2 -20 -10
-8 -6 10 -10 11 -10 3 0 -7 -4 -13 -10 -13 -5 0 -10 9 -10 20 0 13 7 20 20 20
14 0 20 -7 20 -22z m30 -124 c0 -8 -10 -14 -25 -14 -18 0 -25 5 -25 19 0 11 6
21 13 24 15 6 37 -11 37 -29z m1710 -4 c0 -5 -7 -10 -15 -10 -8 0 -15 5 -15
10 0 6 7 10 15 10 8 0 15 -4 15 -10z m-803 -56 c-3 -3 -12 -4 -19 -1 -8 3 -5
6 6 6 11 1 17 -2 13 -5z m63 -14 c0 -5 -5 -10 -11 -10 -5 0 -7 5 -4 10 3 6 8
10 11 10 2 0 4 -4 4 -10z m-236 -446 c23 -9 20 -44 -3 -44 -23 0 -35 15 -27
35 6 17 8 17 30 9z m-420 -99 c3 -8 1 -15 -4 -15 -6 0 -10 7 -10 15 0 8 2 15
4 15 2 0 6 -7 10 -15z m248 -34 c39 -8 53 -17 101 -60 15 -14 27 -21 27 -15 0
5 10 -7 21 -26 12 -19 24 -37 28 -40 29 -23 41 -166 19 -229 -23 -65 -135
-161 -188 -161 -11 0 -20 -4 -20 -10 0 -6 -33 -10 -80 -10 -44 0 -80 4 -80 9
0 5 -13 11 -28 14 -39 8 -135 103 -155 155 -21 52 -22 137 -2 176 8 15 15 35
15 42 0 8 5 14 10 14 6 0 10 7 10 15 0 8 5 15 10 15 6 0 10 7 10 16 0 9 9 18
20 21 11 3 20 8 20 12 0 25 164 85 205 75 11 -3 37 -9 57 -13z m318 -31 c0 -5
-4 -10 -10 -10 -5 0 -10 5 -10 10 0 6 5 10 10 10 6 0 10 -4 10 -10z m-890
-414 c0 -3 -4 -8 -10 -11 -5 -3 -10 -1 -10 4 0 6 5 11 10 11 6 0 10 -2 10 -4z
m-472 -134 c2 -15 -2 -22 -13 -22 -9 0 -13 -4 -10 -10 9 -15 -4 -12 -21 4 -17
18 -18 28 -2 44 18 18 43 10 46 -16z m1542 -122 c0 -5 -4 -10 -10 -10 -5 0
-10 5 -10 10 0 6 5 10 10 10 6 0 10 -4 10 -10z m-1250 -48 c0 -4 15 -13 33
-20 33 -12 107 -77 107 -94 0 -5 4 -7 8 -4 16 10 41 -56 49 -125 6 -51 -13
-159 -28 -159 -5 0 -9 -7 -9 -15 0 -8 -4 -15 -10 -15 -5 0 -10 -4 -10 -10 0
-5 -9 -19 -20 -30 -11 -11 -25 -20 -30 -20 -5 0 -10 -4 -10 -10 0 -5 -7 -10
-15 -10 -8 0 -15 -4 -15 -8 0 -16 -122 -44 -164 -38 -57 9 -106 26 -106 37 0
5 -9 9 -20 9 -11 0 -20 3 -20 8 0 4 -10 12 -22 17 -12 6 -34 33 -48 60 -14 28
-28 52 -32 53 -12 5 -10 182 2 182 6 0 10 7 10 15 0 49 116 165 165 165 8 0
15 5 15 10 0 6 35 10 85 10 47 0 85 -4 85 -8z m1520 -2 c0 -5 9 -10 20 -10 11
0 20 -4 20 -10 0 -5 7 -10 15 -10 8 0 15 -4 15 -9 0 -5 9 -13 20 -16 11 -3 20
-11 20 -16 0 -6 11 -21 25 -35 13 -13 29 -43 36 -67 6 -23 15 -52 20 -64 10
-26 -16 -176 -31 -181 -6 -2 -10 -13 -10 -25 0 -11 -3 -18 -6 -14 -3 3 -16 -4
-29 -16 -40 -39 -67 -58 -84 -62 -9 -2 -29 -8 -44 -14 -16 -6 -45 -11 -65 -11
-46 0 -166 33 -156 43 4 4 -1 7 -10 7 -22 0 -96 73 -96 95 0 8 -4 15 -10 15
-5 0 -10 14 -10 31 0 17 -4 28 -10 24 -6 -4 -10 23 -10 75 0 52 4 79 10 75 6
-3 10 0 10 8 0 42 92 157 126 157 8 0 14 5 14 10 0 6 9 10 20 10 11 0 20 5 20
10 0 6 37 10 90 10 53 0 90 -4 90 -10z m-1023 -82 c-3 -8 -6 -5 -6 6 -1 11 2
17 5 13 3 -3 4 -12 1 -19z m-177 -292 c0 -2 -7 -6 -15 -10 -8 -3 -15 -1 -15 4
0 6 7 10 15 10 8 0 15 -2 15 -4z m1595 -206 c9 -27 -1 -40 -31 -40 -29 0 -42
24 -24 45 18 21 48 19 55 -5z m-845 -84 c0 -15 -27 -29 -40 -21 -5 3 -7 12 -3
20 7 19 43 20 43 1z m-427 -20 c6 -16 -11 -36 -30 -36 -7 0 -13 11 -13 25 0
18 5 25 19 25 10 0 21 -6 24 -14z m131 -73 c28 -10 62 -28 76 -41 54 -49 70
-67 70 -79 0 -7 4 -13 8 -13 12 0 32 -84 32 -131 0 -48 -19 -119 -32 -119 -4
0 -8 -7 -8 -16 0 -23 -78 -94 -130 -117 -62 -27 -187 -29 -252 -3 -27 10 -48
23 -48 27 0 5 -4 9 -9 9 -14 0 -70 58 -86 91 -21 39 -21 208 0 235 8 10 15 25
15 32 0 15 53 72 68 72 6 0 12 4 14 10 2 5 23 20 48 34 57 31 157 35 234 9z
m-414 -43 c0 -5 -4 -10 -10 -10 -5 0 -10 5 -10 10 0 6 5 10 10 10 6 0 10 -4
10 -10z m944 -45 c-3 -7 -12 -11 -20 -8 -17 6 -18 20 -1 26 18 6 27 -1 21 -18z
m196 -21 c0 -8 -7 -14 -15 -14 -8 0 -15 9 -15 20 0 13 5 18 15 14 8 -4 15 -12
15 -20z m-1422 -41 c7 -11 5 -21 -4 -31 -12 -11 -16 -11 -30 2 -8 9 -11 16 -5
16 6 0 11 7 11 15 0 20 17 19 28 -2z m2489 -105 c-3 -8 -6 -5 -6 6 -1 11 2 17
5 13 3 -3 4 -12 1 -19z m-1517 -247 c0 -24 -34 -22 -38 2 -2 12 3 17 17 17 14
0 21 -6 21 -19z m1253 -114 c6 -17 -15 -127 -25 -127 -4 0 -8 -9 -8 -20 0 -11
-4 -20 -10 -20 -5 0 -10 -7 -10 -15 0 -8 -4 -15 -10 -15 -5 0 -10 -10 -10 -23
0 -15 -6 -23 -17 -23 -10 -1 -26 -4 -35 -9 -14 -5 -18 -2 -18 13 0 11 6 23 13
25 9 4 8 8 -3 16 -8 6 -19 12 -24 14 -13 4 13 48 41 70 12 10 23 25 23 33 0 8
5 12 10 9 6 -4 10 5 10 19 0 14 5 26 10 26 6 0 10 6 10 14 0 24 44 35 53 13z
m-2096 -49 c-3 -8 -6 -5 -6 6 -1 11 2 17 5 13 3 -3 4 -12 1 -19z m-247 -98 c0
-11 -4 -20 -10 -20 -5 0 -10 9 -10 20 0 11 5 20 10 20 6 0 10 -9 10 -20z
m-828 -70 c83 -79 97 -90 108 -90 5 0 10 -3 10 -7 0 -5 12 -21 26 -38 19 -23
27 -26 33 -16 11 17 32 5 30 -17 -3 -35 2 -42 32 -42 17 0 28 -4 24 -10 -3 -5
1 -10 9 -10 9 0 16 -5 16 -12 0 -9 3 -9 11 -1 12 12 45 0 60 -21 4 -5 12 -5
18 -2 6 4 11 3 11 -3 0 -6 12 -8 28 -5 22 5 36 0 57 -20 21 -19 24 -26 11 -26
-9 0 -16 -4 -16 -8 0 -4 16 -8 35 -8 36 0 70 -23 78 -55 4 -14 0 -19 -13 -19
-11 0 -22 4 -25 10 -3 6 -15 10 -26 10 -10 0 -19 4 -19 10 0 5 -6 7 -14 4 -8
-3 -12 -12 -9 -21 5 -13 -1 -14 -38 -8 -46 7 -119 43 -119 57 0 4 -7 8 -16 8
-9 0 -31 15 -49 33 -18 18 -49 41 -70 52 -20 11 -46 31 -56 44 -10 13 -19 20
-19 16 0 -4 -10 5 -22 21 -13 16 -35 40 -50 52 -16 13 -28 28 -28 34 0 6 -11
21 -25 34 -14 13 -25 30 -25 39 0 8 -4 15 -8 15 -5 0 -14 11 -20 25 -19 42 11
31 70 -25z m118 35 c0 -8 -4 -15 -9 -15 -5 0 -11 7 -15 15 -3 9 0 15 9 15 8 0
15 -7 15 -15z m2200 -115 c0 -5 -5 -10 -11 -10 -5 0 -7 5 -4 10 3 6 8 10 11
10 2 0 4 -4 4 -10z m-1760 -34 c0 -11 -19 -15 -25 -6 -3 5 1 10 9 10 9 0 16
-2 16 -4z m2487 -11 c0 -8 -4 -15 -9 -15 -4 0 -8 7 -8 15 0 8 4 15 8 15 5 0 9
-7 9 -15z m-100 -12 c-3 -19 -73 -93 -88 -93 -5 0 -9 -3 -9 -7 0 -9 -57 -43
-71 -43 -5 0 13 23 41 50 28 28 55 50 60 50 5 0 11 8 15 19 4 14 30 34 52 40
2 1 2 -7 0 -16z m-1317 -306 c0 -14 -20 -37 -32 -37 -4 0 -8 11 -8 25 0 18 5
25 20 25 11 0 20 -6 20 -13z m250 -11 c0 -9 -30 -14 -35 -6 -4 6 3 10 14 10
12 0 21 -2 21 -4z m570 -71 c0 -14 -4 -25 -10 -25 -5 0 -10 11 -10 25 0 14 5
25 10 25 6 0 10 -11 10 -25z m30 15 c0 -5 -2 -10 -4 -10 -3 0 -8 5 -11 10 -3
6 -1 10 4 10 6 0 11 -4 11 -10z m-1893 -36 c-3 -3 -12 -4 -19 -1 -8 3 -5 6 6
6 11 1 17 -2 13 -5z m906 -18 c3 -8 -1 -17 -9 -20 -9 -4 -14 1 -14 14 0 23 15
27 23 6z m-288 -76 c50 -7 217 -13 372 -13 155 -1 284 -5 287 -8 13 -12 -83
-38 -209 -56 -105 -15 -425 -2 -425 17 0 4 -21 12 -47 18 -75 17 -153 45 -153
55 0 9 12 8 175 -13z m-258 -46 c-3 -3 -12 -4 -19 -1 -8 3 -5 6 6 6 11 1 17
-2 13 -5z m371 -71 c-15 -2 -42 -2 -60 0 -18 2 -6 4 27 4 33 0 48 -2 33 -4z
m359 1 c-3 -3 -12 -4 -19 -1 -8 3 -5 6 6 6 11 1 17 -2 13 -5z m-99 -21 c-21
-2 -55 -2 -75 0 -21 2 -4 4 37 4 41 0 58 -2 38 -4z"/>
<path d="M2010 4124 c0 -8 5 -12 10 -9 6 3 10 10 10 16 0 5 -4 9 -10 9 -5 0
-10 -7 -10 -16z"/>
<path d="M1230 4080 c0 -5 5 -10 10 -10 6 0 10 5 10 10 0 6 -4 10 -10 10 -5 0
-10 -4 -10 -10z"/>
<path d="M906 3915 c-11 -8 -15 -15 -9 -15 6 0 16 7 23 15 16 19 11 19 -14 0z"/>
<path d="M142 2620 c0 -19 2 -27 5 -17 2 9 2 25 0 35 -3 9 -5 1 -5 -18z"/>
<path d="M4262 1700 c0 -14 2 -19 5 -12 2 6 2 18 0 25 -3 6 -5 1 -5 -13z"/>
<path d="M4241 1614 c0 -11 3 -14 6 -6 3 7 2 16 -1 19 -3 4 -6 -2 -5 -13z"/>
</g>
</svg>
